<mxfile host="drawio-plugin" modified="2022-12-20T12:49:31.230Z" agent="5.0 (Macintosh; Intel Mac OS X 10_15_7) AppleWebKit/537.36 (KHTML, like Gecko) Chrome/98.0.4758.102 Safari/537.36" etag="QutQY_F86fcl9Gl7DCY1" version="20.5.3" type="embed" pages="3"><diagram id="kgpKYQtTHZ0yAKxKKP6v" name="agent"><mxGraphModel dx="1296" dy="299" grid="1" gridSize="10" guides="1" tooltips="1" connect="1" arrows="1" fold="1" page="1" pageScale="1" pageWidth="850" pageHeight="1100" math="0" shadow="0"><root><mxCell id="0"/><mxCell id="1" parent="0"/><mxCell id="3nuBFxr9cyL0pnOWT2aG-1" value=":AgentApplication" style="shape=umlLifeline;perimeter=lifelinePerimeter;container=1;collapsible=0;recursiveResize=0;rounded=0;shadow=0;strokeWidth=1;" parent="1" vertex="1"><mxGeometry x="-705" y="70" width="100" height="300" as="geometry"/></mxCell><mxCell id="3nuBFxr9cyL0pnOWT2aG-2" value="" style="points=[];perimeter=orthogonalPerimeter;rounded=0;shadow=0;strokeWidth=1;" parent="3nuBFxr9cyL0pnOWT2aG-1" vertex="1"><mxGeometry x="45" y="70" width="10" height="190" as="geometry"/></mxCell><mxCell id="3nuBFxr9cyL0pnOWT2aG-3" value="启动" style="verticalAlign=bottom;startArrow=oval;endArrow=block;startSize=8;shadow=0;strokeWidth=1;" parent="3nuBFxr9cyL0pnOWT2aG-1" target="3nuBFxr9cyL0pnOWT2aG-2" edge="1"><mxGeometry relative="1" as="geometry"><mxPoint x="-15" y="70" as="sourcePoint"/></mxGeometry></mxCell><mxCell id="3nuBFxr9cyL0pnOWT2aG-5" value=":InitializationService" style="shape=umlLifeline;perimeter=lifelinePerimeter;container=1;collapsible=0;recursiveResize=0;rounded=0;shadow=0;strokeWidth=1;" parent="1" vertex="1"><mxGeometry x="-525" y="70" width="100" height="160" as="geometry"/></mxCell><mxCell id="3nuBFxr9cyL0pnOWT2aG-6" value="" style="points=[];perimeter=orthogonalPerimeter;rounded=0;shadow=0;strokeWidth=1;" parent="3nuBFxr9cyL0pnOWT2aG-5" vertex="1"><mxGeometry x="45" y="80" width="10" height="50" as="geometry"/></mxCell><mxCell id="3nuBFxr9cyL0pnOWT2aG-8" value="init" style="verticalAlign=bottom;endArrow=block;entryX=0;entryY=0;shadow=0;strokeWidth=1;" parent="1" source="3nuBFxr9cyL0pnOWT2aG-2" target="3nuBFxr9cyL0pnOWT2aG-6" edge="1"><mxGeometry relative="1" as="geometry"><mxPoint x="-550" y="150" as="sourcePoint"/></mxGeometry></mxCell><mxCell id="3nuBFxr9cyL0pnOWT2aG-9" value="获得blockNumber" style="verticalAlign=bottom;endArrow=block;shadow=0;strokeWidth=1;" parent="1" source="3nuBFxr9cyL0pnOWT2aG-6" edge="1"><mxGeometry relative="1" as="geometry"><mxPoint x="-585" y="190" as="sourcePoint"/><mxPoint x="-645" y="190" as="targetPoint"/></mxGeometry></mxCell><mxCell id="aKBc_PNxS6OV1rGwipJU-1" value=":BlockService" style="shape=umlLifeline;perimeter=lifelinePerimeter;container=1;collapsible=0;recursiveResize=0;rounded=0;shadow=0;strokeWidth=1;" parent="1" vertex="1"><mxGeometry x="-385" y="70" width="100" height="260" as="geometry"/></mxCell><mxCell id="aKBc_PNxS6OV1rGwipJU-2" value="" style="points=[];perimeter=orthogonalPerimeter;rounded=0;shadow=0;strokeWidth=1;" parent="aKBc_PNxS6OV1rGwipJU-1" vertex="1"><mxGeometry x="45" y="140" width="10" height="50" as="geometry"/></mxCell><mxCell id="aKBc_PNxS6OV1rGwipJU-4" value="&lt;span style=&quot;font-size: 11px;&quot;&gt;getBlockAsync&lt;/span&gt;" style="endArrow=classic;html=1;rounded=0;" parent="1" source="3nuBFxr9cyL0pnOWT2aG-1" target="aKBc_PNxS6OV1rGwipJU-1" edge="1"><mxGeometry width="50" height="50" relative="1" as="geometry"><mxPoint x="-425" y="290" as="sourcePoint"/><mxPoint x="-375" y="240" as="targetPoint"/></mxGeometry></mxCell><mxCell id="aKBc_PNxS6OV1rGwipJU-5" value=":BlockEventPublisher" style="shape=umlLifeline;perimeter=lifelinePerimeter;container=1;collapsible=0;recursiveResize=0;rounded=0;shadow=0;strokeWidth=1;" parent="1" vertex="1"><mxGeometry x="-215" y="70" width="100" height="260" as="geometry"/></mxCell><mxCell id="aKBc_PNxS6OV1rGwipJU-6" value="" style="points=[];perimeter=orthogonalPerimeter;rounded=0;shadow=0;strokeWidth=1;" parent="aKBc_PNxS6OV1rGwipJU-5" vertex="1"><mxGeometry x="45" y="200" width="10" height="50" as="geometry"/></mxCell><mxCell id="aKBc_PNxS6OV1rGwipJU-7" value="返回节点上的块信息" style="endArrow=classic;html=1;rounded=0;exitX=0;exitY=0.84;exitDx=0;exitDy=0;exitPerimeter=0;entryX=1.1;entryY=0.6;entryDx=0;entryDy=0;entryPerimeter=0;" parent="1" source="aKBc_PNxS6OV1rGwipJU-2" target="3nuBFxr9cyL0pnOWT2aG-2" edge="1"><mxGeometry width="50" height="50" relative="1" as="geometry"><mxPoint x="-495" y="320" as="sourcePoint"/><mxPoint x="-445" y="270" as="targetPoint"/></mxGeometry></mxCell><mxCell id="aKBc_PNxS6OV1rGwipJU-8" value="publish" style="endArrow=classic;html=1;rounded=0;" parent="1" source="3nuBFxr9cyL0pnOWT2aG-1" target="aKBc_PNxS6OV1rGwipJU-6" edge="1"><mxGeometry width="50" height="50" relative="1" as="geometry"><mxPoint x="-445" y="330" as="sourcePoint"/><mxPoint x="-395" y="280" as="targetPoint"/></mxGeometry></mxCell><mxCell id="aKBc_PNxS6OV1rGwipJU-9" value=":BlockEventHandler" style="shape=umlLifeline;perimeter=lifelinePerimeter;container=1;collapsible=0;recursiveResize=0;rounded=0;shadow=0;strokeWidth=1;" parent="1" vertex="1"><mxGeometry x="-55" y="70" width="100" height="260" as="geometry"/></mxCell><mxCell id="aKBc_PNxS6OV1rGwipJU-10" value="" style="points=[];perimeter=orthogonalPerimeter;rounded=0;shadow=0;strokeWidth=1;" parent="aKBc_PNxS6OV1rGwipJU-9" vertex="1"><mxGeometry x="45" y="200" width="10" height="50" as="geometry"/></mxCell><mxCell id="aKBc_PNxS6OV1rGwipJU-11" value="onEvent" style="edgeStyle=orthogonalEdgeStyle;rounded=0;orthogonalLoop=1;jettySize=auto;html=1;dashed=1;dashPattern=1 1;" parent="1" source="aKBc_PNxS6OV1rGwipJU-6" target="aKBc_PNxS6OV1rGwipJU-10" edge="1"><mxGeometry relative="1" as="geometry"><Array as="points"><mxPoint x="-85" y="270"/><mxPoint x="-85" y="270"/></Array></mxGeometry></mxCell><mxCell id="aKBc_PNxS6OV1rGwipJU-15" value=":CollectionEventHandler" style="shape=umlLifeline;perimeter=lifelinePerimeter;container=1;collapsible=0;recursiveResize=0;rounded=0;shadow=0;strokeWidth=1;" parent="1" vertex="1"><mxGeometry x="150" y="70" width="100" height="710" as="geometry"/></mxCell><mxCell id="aKBc_PNxS6OV1rGwipJU-16" value="" style="points=[];perimeter=orthogonalPerimeter;rounded=0;shadow=0;strokeWidth=1;" parent="aKBc_PNxS6OV1rGwipJU-15" vertex="1"><mxGeometry x="45" y="210" width="10" height="450" as="geometry"/></mxCell><mxCell id="aKBc_PNxS6OV1rGwipJU-17" value="&lt;meta charset=&quot;utf-8&quot;&gt;&lt;span style=&quot;color: rgb(0, 0, 0); font-family: Helvetica; font-size: 11px; font-style: normal; font-variant-ligatures: normal; font-variant-caps: normal; font-weight: 400; letter-spacing: normal; orphans: 2; text-align: center; text-indent: 0px; text-transform: none; widows: 2; word-spacing: 0px; -webkit-text-stroke-width: 0px; background-color: rgb(255, 255, 255); text-decoration-thickness: initial; text-decoration-style: initial; text-decoration-color: initial; float: none; display: inline !important;&quot;&gt;onEvent&lt;/span&gt;" style="edgeStyle=orthogonalEdgeStyle;rounded=0;orthogonalLoop=1;jettySize=auto;html=1;dashed=1;dashPattern=1 1;" parent="1" source="aKBc_PNxS6OV1rGwipJU-10" target="aKBc_PNxS6OV1rGwipJU-16" edge="1"><mxGeometry x="-0.0435" relative="1" as="geometry"><mxPoint x="45" y="290" as="sourcePoint"/><Array as="points"><mxPoint x="40" y="280"/><mxPoint x="40" y="280"/></Array><mxPoint as="offset"/></mxGeometry></mxCell><mxCell id="aKBc_PNxS6OV1rGwipJU-18" value=":TransactionAnalyzer" style="shape=umlLifeline;perimeter=lifelinePerimeter;container=1;collapsible=0;recursiveResize=0;rounded=0;shadow=0;strokeWidth=1;" parent="1" vertex="1"><mxGeometry x="310" y="70" width="100" height="350" as="geometry"/></mxCell><mxCell id="aKBc_PNxS6OV1rGwipJU-19" value="" style="points=[];perimeter=orthogonalPerimeter;rounded=0;shadow=0;strokeWidth=1;" parent="aKBc_PNxS6OV1rGwipJU-18" vertex="1"><mxGeometry x="45" y="210" width="10" height="50" as="geometry"/></mxCell><mxCell id="aKBc_PNxS6OV1rGwipJU-20" value="&lt;span style=&quot;font-size: 11px;&quot;&gt;analyze&lt;/span&gt;" style="edgeStyle=orthogonalEdgeStyle;rounded=0;orthogonalLoop=1;jettySize=auto;html=1;" parent="1" source="aKBc_PNxS6OV1rGwipJU-16" target="aKBc_PNxS6OV1rGwipJU-19" edge="1"><mxGeometry relative="1" as="geometry"><Array as="points"><mxPoint x="280" y="290"/><mxPoint x="280" y="290"/></Array></mxGeometry></mxCell><mxCell id="aKBc_PNxS6OV1rGwipJU-21" value="分析出交易数据" style="edgeStyle=orthogonalEdgeStyle;rounded=0;orthogonalLoop=1;jettySize=auto;html=1;" parent="1" source="aKBc_PNxS6OV1rGwipJU-19" target="aKBc_PNxS6OV1rGwipJU-16" edge="1"><mxGeometry relative="1" as="geometry"><Array as="points"><mxPoint x="320" y="330"/><mxPoint x="320" y="330"/></Array></mxGeometry></mxCell><mxCell id="aKBc_PNxS6OV1rGwipJU-22" value=":CustomTxBakMapper&#10;:CustomTx20BakMapper&#10;:CustomTx721BakMapper&#10;:CustomTx1155BakMapper&#10;:CustomTx1155BakMapper&#10;:CustomTxDelegationRewardBakMapper&#10;:CustomNOptBakMapper&#10;:AddressMapper" style="shape=umlLifeline;perimeter=lifelinePerimeter;container=1;collapsible=0;recursiveResize=0;rounded=0;shadow=0;strokeWidth=1;size=120;" parent="1" vertex="1"><mxGeometry x="1070" y="40" width="240" height="740" as="geometry"/></mxCell><mxCell id="aKBc_PNxS6OV1rGwipJU-23" value="" style="points=[];perimeter=orthogonalPerimeter;rounded=0;shadow=0;strokeWidth=1;" parent="aKBc_PNxS6OV1rGwipJU-22" vertex="1"><mxGeometry x="115" y="410" width="10" height="60" as="geometry"/></mxCell><mxCell id="aKBc_PNxS6OV1rGwipJU-24" value="批量插入" style="edgeStyle=orthogonalEdgeStyle;rounded=0;orthogonalLoop=1;jettySize=auto;html=1;" parent="1" source="aKBc_PNxS6OV1rGwipJU-16" target="aKBc_PNxS6OV1rGwipJU-23" edge="1"><mxGeometry relative="1" as="geometry"><mxPoint x="635" y="480" as="sourcePoint"/><mxPoint x="1140" y="480" as="targetPoint"/><Array as="points"><mxPoint x="530" y="480"/><mxPoint x="530" y="480"/></Array></mxGeometry></mxCell><mxCell id="aKBc_PNxS6OV1rGwipJU-27" value=":StatisticService" style="shape=umlLifeline;perimeter=lifelinePerimeter;container=1;collapsible=0;recursiveResize=0;rounded=0;shadow=0;strokeWidth=1;" parent="1" vertex="1"><mxGeometry x="1370" y="70" width="100" height="520" as="geometry"/></mxCell><mxCell id="aKBc_PNxS6OV1rGwipJU-28" value="" style="points=[];perimeter=orthogonalPerimeter;rounded=0;shadow=0;strokeWidth=1;" parent="aKBc_PNxS6OV1rGwipJU-27" vertex="1"><mxGeometry x="45" y="430" width="10" height="50" as="geometry"/></mxCell><mxCell id="aKBc_PNxS6OV1rGwipJU-29" value="&lt;span style=&quot;font-size: 11px;&quot;&gt;analyze&lt;/span&gt;" style="edgeStyle=orthogonalEdgeStyle;rounded=0;orthogonalLoop=1;jettySize=auto;html=1;" parent="1" source="aKBc_PNxS6OV1rGwipJU-16" target="aKBc_PNxS6OV1rGwipJU-28" edge="1"><mxGeometry relative="1" as="geometry"><mxPoint x="635" y="525" as="sourcePoint"/><Array as="points"><mxPoint x="590" y="525"/><mxPoint x="590" y="525"/></Array></mxGeometry></mxCell><mxCell id="aKBc_PNxS6OV1rGwipJU-31" value=":StatisticBusinessMapper" style="shape=umlLifeline;perimeter=lifelinePerimeter;container=1;collapsible=0;recursiveResize=0;rounded=0;shadow=0;strokeWidth=1;" parent="1" vertex="1"><mxGeometry x="1520" y="70" width="100" height="560" as="geometry"/></mxCell><mxCell id="aKBc_PNxS6OV1rGwipJU-32" value="" style="points=[];perimeter=orthogonalPerimeter;rounded=0;shadow=0;strokeWidth=1;" parent="aKBc_PNxS6OV1rGwipJU-31" vertex="1"><mxGeometry x="45" y="430" width="10" height="50" as="geometry"/></mxCell><mxCell id="aKBc_PNxS6OV1rGwipJU-33" value="批量插入address表" style="edgeStyle=orthogonalEdgeStyle;rounded=0;orthogonalLoop=1;jettySize=auto;html=1;" parent="1" source="aKBc_PNxS6OV1rGwipJU-28" target="aKBc_PNxS6OV1rGwipJU-32" edge="1"><mxGeometry relative="1" as="geometry"><Array as="points"><mxPoint x="1500" y="525"/><mxPoint x="1500" y="525"/></Array></mxGeometry></mxCell><mxCell id="aKBc_PNxS6OV1rGwipJU-34" value=":PersistenceEventHandler" style="shape=umlLifeline;perimeter=lifelinePerimeter;container=1;collapsible=0;recursiveResize=0;rounded=0;shadow=0;strokeWidth=1;" parent="1" vertex="1"><mxGeometry x="1670" y="70" width="100" height="660" as="geometry"/></mxCell><mxCell id="aKBc_PNxS6OV1rGwipJU-35" value="" style="points=[];perimeter=orthogonalPerimeter;rounded=0;shadow=0;strokeWidth=1;" parent="aKBc_PNxS6OV1rGwipJU-34" vertex="1"><mxGeometry x="45" y="550" width="10" height="50" as="geometry"/></mxCell><mxCell id="aKBc_PNxS6OV1rGwipJU-36" value="&lt;span style=&quot;font-size: 11px;&quot;&gt;onEvent&lt;/span&gt;" style="edgeStyle=orthogonalEdgeStyle;rounded=0;orthogonalLoop=1;jettySize=auto;html=1;dashed=1;dashPattern=1 1;" parent="1" source="aKBc_PNxS6OV1rGwipJU-16" target="aKBc_PNxS6OV1rGwipJU-35" edge="1"><mxGeometry relative="1" as="geometry"><mxPoint x="635" y="645" as="sourcePoint"/><Array as="points"><mxPoint x="650" y="645"/><mxPoint x="650" y="645"/></Array></mxGeometry></mxCell><mxCell id="aKBc_PNxS6OV1rGwipJU-39" value="batchImport" style="edgeStyle=orthogonalEdgeStyle;rounded=0;orthogonalLoop=1;jettySize=auto;html=1;" parent="1" source="aKBc_PNxS6OV1rGwipJU-35" target="aKBc_PNxS6OV1rGwipJU-41" edge="1"><mxGeometry relative="1" as="geometry"><mxPoint x="1915" y="705" as="targetPoint"/><Array as="points"><mxPoint x="1810" y="645"/><mxPoint x="1810" y="645"/></Array></mxGeometry></mxCell><mxCell id="aKBc_PNxS6OV1rGwipJU-40" value=":EsImportService" style="shape=umlLifeline;perimeter=lifelinePerimeter;container=1;collapsible=0;recursiveResize=0;rounded=0;shadow=0;strokeWidth=1;" parent="1" vertex="1"><mxGeometry x="1850" y="70" width="100" height="650" as="geometry"/></mxCell><mxCell id="aKBc_PNxS6OV1rGwipJU-41" value="" style="points=[];perimeter=orthogonalPerimeter;rounded=0;shadow=0;strokeWidth=1;" parent="aKBc_PNxS6OV1rGwipJU-40" vertex="1"><mxGeometry x="45" y="550" width="10" height="50" as="geometry"/></mxCell><mxCell id="aKBc_PNxS6OV1rGwipJU-42" value=":esBlockService&#10;:esTransactionService&#10;esDelegateRewardService&#10;:esErc20TxService&#10;:esErc721TxService&#10;:esErc1155TxService" style="shape=umlLifeline;perimeter=lifelinePerimeter;container=1;collapsible=0;recursiveResize=0;rounded=0;shadow=0;strokeWidth=1;size=90;" parent="1" vertex="1"><mxGeometry x="2000" y="40" width="170" height="660" as="geometry"/></mxCell><mxCell id="aKBc_PNxS6OV1rGwipJU-43" value="" style="points=[];perimeter=orthogonalPerimeter;rounded=0;shadow=0;strokeWidth=1;" parent="aKBc_PNxS6OV1rGwipJU-42" vertex="1"><mxGeometry x="80" y="580" width="10" height="50" as="geometry"/></mxCell><mxCell id="aKBc_PNxS6OV1rGwipJU-44" value="save" style="edgeStyle=orthogonalEdgeStyle;rounded=0;orthogonalLoop=1;jettySize=auto;html=1;" parent="1" source="aKBc_PNxS6OV1rGwipJU-41" target="aKBc_PNxS6OV1rGwipJU-43" edge="1"><mxGeometry relative="1" as="geometry"/></mxCell><mxCell id="4wIJH0FuQo4v-DimHwrp-1" value=":pposService" style="shape=umlLifeline;perimeter=lifelinePerimeter;container=1;collapsible=0;recursiveResize=0;rounded=0;shadow=0;strokeWidth=1;" parent="1" vertex="1"><mxGeometry x="680" y="70" width="100" height="400" as="geometry"/></mxCell><mxCell id="4wIJH0FuQo4v-DimHwrp-2" value="" style="points=[];perimeter=orthogonalPerimeter;rounded=0;shadow=0;strokeWidth=1;" parent="4wIJH0FuQo4v-DimHwrp-1" vertex="1"><mxGeometry x="45" y="270" width="10" height="80" as="geometry"/></mxCell><mxCell id="tVnUZ7Se0x7Jj0a-BuJ5-1" value="&lt;meta charset=&quot;utf-8&quot;&gt;&lt;span style=&quot;color: rgb(0, 0, 0); font-family: Helvetica; font-size: 11px; font-style: normal; font-variant-ligatures: normal; font-variant-caps: normal; font-weight: 400; letter-spacing: normal; orphans: 2; text-align: center; text-indent: 0px; text-transform: none; widows: 2; word-spacing: 0px; -webkit-text-stroke-width: 0px; background-color: rgb(255, 255, 255); text-decoration-thickness: initial; text-decoration-style: initial; text-decoration-color: initial; float: none; display: inline !important;&quot;&gt;analyze&lt;/span&gt;" style="edgeStyle=orthogonalEdgeStyle;rounded=0;orthogonalLoop=1;jettySize=auto;html=1;" parent="1" source="aKBc_PNxS6OV1rGwipJU-16" target="4wIJH0FuQo4v-DimHwrp-2" edge="1"><mxGeometry relative="1" as="geometry"><Array as="points"><mxPoint x="400" y="365"/><mxPoint x="400" y="365"/></Array></mxGeometry></mxCell><mxCell id="tVnUZ7Se0x7Jj0a-BuJ5-2" value=":stakeBusinessMapper&#10;:proposalBusinessMapper&#10;:delegateBusinessMapper&#10;:customGasEstimateMapper&#10;:voteMapper&#10;:slashMapper&#10;:rpPlanMapper" style="shape=umlLifeline;perimeter=lifelinePerimeter;container=1;collapsible=0;recursiveResize=0;rounded=0;shadow=0;strokeWidth=1;size=120;" parent="1" vertex="1"><mxGeometry x="845" y="40" width="180" height="350" as="geometry"/></mxCell><mxCell id="tVnUZ7Se0x7Jj0a-BuJ5-3" value="" style="points=[];perimeter=orthogonalPerimeter;rounded=0;shadow=0;strokeWidth=1;" parent="tVnUZ7Se0x7Jj0a-BuJ5-2" vertex="1"><mxGeometry x="85" y="305" width="10" height="50" as="geometry"/></mxCell><mxCell id="tVnUZ7Se0x7Jj0a-BuJ5-4" value="入库" style="edgeStyle=orthogonalEdgeStyle;rounded=0;orthogonalLoop=1;jettySize=auto;html=1;" parent="1" source="4wIJH0FuQo4v-DimHwrp-2" target="tVnUZ7Se0x7Jj0a-BuJ5-3" edge="1"><mxGeometry relative="1" as="geometry"><Array as="points"><mxPoint x="750" y="365"/><mxPoint x="750" y="365"/></Array></mxGeometry></mxCell><mxCell id="BpKEB5ZnRUsfdQ-F1iFI-1" value=":customTokenMapper&#10;:customTokenHolderMapper&#10;:customTokenInventoryMapper&#10;:customToken1155InventoryMapper&#10;:customToken1155HolderMapper" style="shape=umlLifeline;perimeter=lifelinePerimeter;container=1;collapsible=0;recursiveResize=0;rounded=0;shadow=0;strokeWidth=1;size=120;" parent="1" vertex="1"><mxGeometry x="460" y="40" width="180" height="350" as="geometry"/></mxCell><mxCell id="BpKEB5ZnRUsfdQ-F1iFI-2" value="" style="points=[];perimeter=orthogonalPerimeter;rounded=0;shadow=0;strokeWidth=1;" parent="BpKEB5ZnRUsfdQ-F1iFI-1" vertex="1"><mxGeometry x="85" y="240" width="10" height="50" as="geometry"/></mxCell><mxCell id="BpKEB5ZnRUsfdQ-F1iFI-3" value="入库" style="edgeStyle=orthogonalEdgeStyle;rounded=0;orthogonalLoop=1;jettySize=auto;html=1;" parent="1" source="aKBc_PNxS6OV1rGwipJU-19" target="BpKEB5ZnRUsfdQ-F1iFI-2" edge="1"><mxGeometry relative="1" as="geometry"/></mxCell></root></mxGraphModel></diagram><diagram id="_75oXEkhfJ557ted0Qmp" name="es_nodeopt"><mxGraphModel dx="1266" dy="607" grid="1" gridSize="10" guides="1" tooltips="1" connect="1" arrows="1" fold="1" page="1" pageScale="1" pageWidth="827" pageHeight="1169" math="0" shadow="0"><root><mxCell id="0"/><mxCell id="1" parent="0"/><mxCell id="pRA4I0wnS3jQsKHCH_OK-1" value=":JobApplication" style="shape=umlLifeline;perimeter=lifelinePerimeter;container=1;collapsible=0;recursiveResize=0;rounded=0;shadow=0;strokeWidth=1;" vertex="1" parent="1"><mxGeometry x="90" y="60" width="100" height="300" as="geometry"/></mxCell><mxCell id="pRA4I0wnS3jQsKHCH_OK-2" value="" style="points=[];perimeter=orthogonalPerimeter;rounded=0;shadow=0;strokeWidth=1;" vertex="1" parent="pRA4I0wnS3jQsKHCH_OK-1"><mxGeometry x="45" y="70" width="10" height="100" as="geometry"/></mxCell><mxCell id="pRA4I0wnS3jQsKHCH_OK-3" value="启动" style="verticalAlign=bottom;startArrow=oval;endArrow=block;startSize=8;shadow=0;strokeWidth=1;" edge="1" parent="pRA4I0wnS3jQsKHCH_OK-1" target="pRA4I0wnS3jQsKHCH_OK-2"><mxGeometry relative="1" as="geometry"><mxPoint x="-15" y="70" as="sourcePoint"/></mxGeometry></mxCell><mxCell id="pRA4I0wnS3jQsKHCH_OK-4" value=":nodeOptMoveToESJobHandler" style="shape=umlLifeline;perimeter=lifelinePerimeter;container=1;collapsible=0;recursiveResize=0;rounded=0;shadow=0;strokeWidth=1;" vertex="1" parent="1"><mxGeometry x="270" y="60" width="100" height="300" as="geometry"/></mxCell><mxCell id="pRA4I0wnS3jQsKHCH_OK-5" value="" style="points=[];perimeter=orthogonalPerimeter;rounded=0;shadow=0;strokeWidth=1;" vertex="1" parent="pRA4I0wnS3jQsKHCH_OK-4"><mxGeometry x="45" y="80" width="10" height="120" as="geometry"/></mxCell><mxCell id="pRA4I0wnS3jQsKHCH_OK-6" value="执行" style="verticalAlign=bottom;endArrow=block;entryX=0;entryY=0;shadow=0;strokeWidth=1;" edge="1" parent="1" source="pRA4I0wnS3jQsKHCH_OK-2" target="pRA4I0wnS3jQsKHCH_OK-5"><mxGeometry relative="1" as="geometry"><mxPoint x="245" y="140" as="sourcePoint"/></mxGeometry></mxCell><mxCell id="pRA4I0wnS3jQsKHCH_OK-8" value=":NOptBakMapper" style="shape=umlLifeline;perimeter=lifelinePerimeter;container=1;collapsible=0;recursiveResize=0;rounded=0;shadow=0;strokeWidth=1;" vertex="1" parent="1"><mxGeometry x="470" y="60" width="100" height="300" as="geometry"/></mxCell><mxCell id="pRA4I0wnS3jQsKHCH_OK-9" value="" style="points=[];perimeter=orthogonalPerimeter;rounded=0;shadow=0;strokeWidth=1;" vertex="1" parent="pRA4I0wnS3jQsKHCH_OK-8"><mxGeometry x="45" y="80" width="10" height="50" as="geometry"/></mxCell><mxCell id="pRA4I0wnS3jQsKHCH_OK-10" value="save" style="edgeStyle=orthogonalEdgeStyle;rounded=0;orthogonalLoop=1;jettySize=auto;html=1;" edge="1" parent="1" source="pRA4I0wnS3jQsKHCH_OK-5" target="QJcPdy3q-zTxil3ZQCES-2"><mxGeometry relative="1" as="geometry"><Array as="points"><mxPoint x="420" y="210"/><mxPoint x="420" y="210"/></Array></mxGeometry></mxCell><mxCell id="QJcPdy3q-zTxil3ZQCES-1" value=":esNodeOptService" style="shape=umlLifeline;perimeter=lifelinePerimeter;container=1;collapsible=0;recursiveResize=0;rounded=0;shadow=0;strokeWidth=1;" vertex="1" parent="1"><mxGeometry x="640" y="60" width="100" height="300" as="geometry"/></mxCell><mxCell id="QJcPdy3q-zTxil3ZQCES-2" value="" style="points=[];perimeter=orthogonalPerimeter;rounded=0;shadow=0;strokeWidth=1;" vertex="1" parent="QJcPdy3q-zTxil3ZQCES-1"><mxGeometry x="45" y="125" width="10" height="50" as="geometry"/></mxCell><mxCell id="l_dRSJPzqJd1IEm8jgl4-1" value="查询n_node_bak表" style="edgeStyle=orthogonalEdgeStyle;rounded=0;orthogonalLoop=1;jettySize=auto;html=1;" edge="1" parent="1" source="pRA4I0wnS3jQsKHCH_OK-5" target="pRA4I0wnS3jQsKHCH_OK-9"><mxGeometry relative="1" as="geometry"><Array as="points"><mxPoint x="380" y="165"/><mxPoint x="380" y="165"/></Array></mxGeometry></mxCell></root></mxGraphModel></diagram><diagram id="pyDt7ASAb9NAkAC8JMw6" name="数据流图"><mxGraphModel dx="446" dy="299" grid="1" gridSize="10" guides="1" tooltips="1" connect="1" arrows="1" fold="1" page="1" pageScale="1" pageWidth="827" pageHeight="1169" math="0" shadow="0"><root><mxCell id="0"/><mxCell id="1" parent="0"/><mxCell id="rGsS2sx6Y75UUKPHLDPp-4" value="" style="edgeStyle=orthogonalEdgeStyle;rounded=0;orthogonalLoop=1;jettySize=auto;html=1;" parent="1" source="rGsS2sx6Y75UUKPHLDPp-1" target="rGsS2sx6Y75UUKPHLDPp-3" edge="1"><mxGeometry relative="1" as="geometry"/></mxCell><mxCell id="GDqktAeN3hRcVpz-d3ng-3" value="agent服务解析" style="edgeStyle=orthogonalEdgeStyle;rounded=0;orthogonalLoop=1;jettySize=auto;html=1;entryX=0;entryY=0.5;entryDx=0;entryDy=0;" parent="1" source="rGsS2sx6Y75UUKPHLDPp-1" target="GDqktAeN3hRcVpz-d3ng-1" edge="1"><mxGeometry x="-0.5429" relative="1" as="geometry"><mxPoint as="offset"/></mxGeometry></mxCell><mxCell id="rGsS2sx6Y75UUKPHLDPp-1" value="节点rpc&lt;br&gt;区块数据及区块内的交易数据" style="rounded=0;whiteSpace=wrap;html=1;" parent="1" vertex="1"><mxGeometry x="100" y="160" width="120" height="60" as="geometry"/></mxCell><mxCell id="GDqktAeN3hRcVpz-d3ng-2" value="job定时同步&lt;br&gt;nodeOpt" style="edgeStyle=orthogonalEdgeStyle;rounded=0;orthogonalLoop=1;jettySize=auto;html=1;" parent="1" source="rGsS2sx6Y75UUKPHLDPp-3" target="GDqktAeN3hRcVpz-d3ng-1" edge="1"><mxGeometry relative="1" as="geometry"/></mxCell><mxCell id="rGsS2sx6Y75UUKPHLDPp-3" value="mysql" style="rounded=0;whiteSpace=wrap;html=1;" parent="1" vertex="1"><mxGeometry x="380" y="160" width="120" height="60" as="geometry"/></mxCell><mxCell id="GDqktAeN3hRcVpz-d3ng-1" value="e s" style="rounded=0;whiteSpace=wrap;html=1;" parent="1" vertex="1"><mxGeometry x="380" y="350" width="120" height="60" as="geometry"/></mxCell></root></mxGraphModel></diagram></mxfile>